# xmcd
#
# Track frame offsets:
#	150
#	12202
#	24700
#	37339
#	51440
#	63673
#	78062
#	91041
#	102784
#	115419
#	128000
#	141404
#	155454
#	168045
#	181163
#	193394
#	206575
#	219263
#	231744
#	244871
#	255704
#	268504
#	280498
#	293637
#	306393
#
# Disc length: 4258 seconds
#
# Revision: 0
# Processed by: cddbd v1.5.1PL2 Copyright (c) Steve Scherf et al.
# Submitted via: EasyCDDAExtractor 9.1.3.1
#
DISCID=7410a019
DTITLE=Memphis Slim - Rockin' This House (Chicago Blues Piano 1946-53) - Disc 
DTITLE=A (Memphis Slim, 1946-48)
DYEAR=2006
DGENRE=Blues
TTITLE0=Now I Got The Blues
TTITLE1=Don't Ration My love
TTITLE2=Mistake In Life
TTITLE3=Grinder Man Blues
TTITLE4=Slim's Boogie
TTITLE5=Little Mary
TTITLE6=Cheattin' Around
TTITLE7=A Letter Home
TTITLE8=Kilroy Has Been Here
TTITLE9=Rockin' This House
TTITLE10=Lend Me Your Love
TTITLE11=Darling, I Miss You
TTITLE12=Pacemaker Boogie 
TTITLE13=(Sometimes I Feel Like A) Motherless Child
TTITLE14=Harlem Bound
TTITLE15=Life Is Like That
TTITLE16=Nobody Loves Me
TTITLE17=Believe I'll Settle Down
TTITLE18=Throw This Poor Dog A Bone
TTITLE19=Help Me Some
TTITLE20=Country Girl
TTITLE21=Blue And Lonesome
TTITLE22=Angel Child
TTITLE23=Midnight Jump
TTITLE24=Messin' Around
EXTD=
EXTT0=
EXTT1=
EXTT2=
EXTT3=
EXTT4=
EXTT5=
EXTT6=
EXTT7=
EXTT8=
EXTT9=
EXTT10=
EXTT11=
EXTT12=
EXTT13=
EXTT14=
EXTT15=
EXTT16=
EXTT17=
EXTT18=
EXTT19=
EXTT20=
EXTT21=
EXTT22=
EXTT23=
EXTT24=
PLAYORDER=
